<svg id="Capa_1" enable-background="new 0 0 512 512" height="512" viewBox="0 0 512 512" width="512" xmlns="http://www.w3.org/2000/svg"><g><path d="m301 30v30h-30v60h-30v-60h-30v-30h30v-30h30v30z" fill="#ff641a"/><path d="m271 120h-15v-120h15v30h30v30h-30z" fill="#f03800"/><path d="m30 151h120v346h-120z" fill="#dfe7f4"/><path d="m362 151h120v346h-120z" fill="#c7cfe1"/><path d="m120 90h272v407h-272z" fill="#f0f7ff"/><path d="m256 90h136v407h-136z" fill="#dfe7f4"/><path d="m181 391h150v106h-150z" fill="#00c8c8"/><path d="m256 391h75v106h-75z" fill="#00a0aa"/><path d="m211 421h30v76h-30z" fill="#64e1dc"/><path d="m271 421h30v76h-30z" fill="#00c8c8"/><path d="m241 331h30v30h-30z" fill="#64e1dc"/><path d="m181 331h30v30h-30z" fill="#64e1dc"/><path d="m181 271h30v30h-30z" fill="#64e1dc"/><path d="m241 271h30v30h-30z" fill="#64e1dc"/><path d="m301 271h30v30h-30z" fill="#00c8c8"/><path d="m301 211h30v30h-30z" fill="#00c8c8"/><path d="m241 211h30v30h-30z" fill="#64e1dc"/><path d="m181 211h30v30h-30z" fill="#64e1dc"/><path d="m181 151h30v30h-30z" fill="#64e1dc"/><path d="m241 151h30v30h-30z" fill="#64e1dc"/><path d="m301 151h30v30h-30z" fill="#00c8c8"/><path d="m301 331h30v30h-30z" fill="#00c8c8"/><path d="m422 271h30v30h-30z" fill="#00a0aa"/><path d="m422 211h30v30h-30z" fill="#00a0aa"/><path d="m422 331h30v30h-30z" fill="#00a0aa"/><g fill="#00c8c8"><path d="m60 271h30v30h-30z"/><path d="m60 211h30v30h-30z"/><path d="m60 331h30v30h-30z"/><path d="m256 151h15v30h-15z"/><path d="m256 211h15v30h-15z"/><path d="m256 271h15v30h-15z"/><path d="m256 331h15v30h-15z"/></g><path d="m0 482h512v30h-512z" fill="#97de3d"/><path d="m256 482h256v30h-256z" fill="#59c36a"/></g></svg>